<svg width="36" height="36" viewBox="0 0 36 36" xmlns="http://www.w3.org/2000/svg"><g sketch:type="MSLayerGroup" transform="translate(-1055 -3418) translate(1055 3418)" fill="none"><circle stroke="#8490A7" stroke-width="2" opacity=".4" sketch:type="MSShapeGroup" cx="18" cy="18" r="18"/><path d="M24.976 12.965c.728-.459 1.287-1.188 1.549-2.056-.682.427-1.435.735-2.239.902-.641-.723-1.558-1.174-2.573-1.174-1.946 0-3.524 1.665-3.524 3.717 0 .291.029.575.09.847-2.929-.155-5.526-1.634-7.265-3.884-.304.551-.477 1.189-.477 1.87 0 1.289.622 2.427 1.568 3.095-.578-.019-1.121-.188-1.597-.465v.046c0 1.802 1.214 3.305 2.829 3.645-.296.087-.607.131-.93.131-.227 0-.449-.022-.663-.066.448 1.476 1.75 2.553 3.293 2.581-1.207.998-2.727 1.591-4.378 1.591-.284 0-.566-.016-.841-.051 1.56 1.054 3.413 1.67 5.404 1.67 6.485 0 10.029-5.665 10.029-10.578l-.009-.481c.689-.524 1.288-1.18 1.759-1.925-.632.296-1.312.496-2.024.585z" fill="#434D5F" sketch:type="MSShapeGroup"/></g></svg>