<svg width="36" height="36" viewBox="0 0 36 36" xmlns="http://www.w3.org/2000/svg"><g sketch:type="MSLayerGroup" transform="translate(-1104 -3418) translate(1104 3418)" fill="none"><circle stroke="#8490A7" stroke-width="2" opacity=".4" sketch:type="MSShapeGroup" cx="18" cy="18" r="18"/><path d="M10.231 15.065h3.189v11.115h-3.189v-11.115zm1.513-1.39h-.023c-1.155 0-1.903-.85-1.903-1.926 0-1.098.771-1.931 1.948-1.931s1.9.831 1.923 1.928c0 1.076-.747 1.929-1.945 1.929zm14.437 12.507h-3.617v-5.753c0-1.506-.566-2.532-1.81-2.532-.952 0-1.481.693-1.727 1.362-.092.239-.078.573-.078.908v6.015h-3.583s.046-10.19 0-11.117h3.583v1.744c.212-.763 1.357-1.851 3.184-1.851 2.267 0 4.048 1.6 4.048 5.042v6.182z" fill="#434D5F" sketch:type="MSShapeGroup"/></g></svg>