<svg width="36" height="36" viewBox="0 0 36 36" xmlns="http://www.w3.org/2000/svg" ><g sketch:type="MSLayerGroup" transform="translate(-1155 -3418) translate(1155 3418)" fill="none"><circle stroke="#8490A7" stroke-width="2" opacity=".4" sketch:type="MSShapeGroup" cx="18" cy="18" r="18"/><path d="M8.182 18.249c0 4.447 2.813 8.221 6.714 9.552.491.093.67-.218.67-.485l-.013-1.712c-2.731.608-3.307-1.35-3.307-1.35-.447-1.163-1.09-1.473-1.09-1.473-.891-.625.068-.612.068-.612.985.071 1.504 1.038 1.504 1.038.876 1.538 2.298 1.094 2.858.836.089-.651.343-1.094.623-1.346-2.18-.254-4.472-1.117-4.472-4.975 0-1.099.383-1.998 1.011-2.702-.101-.255-.438-1.278.096-2.664 0 0 .825-.271 2.7 1.031.784-.223 1.623-.335 2.458-.339.834.004 1.674.116 2.459.339 1.874-1.303 2.697-1.031 2.697-1.031.535 1.386.198 2.409.098 2.664.629.704 1.009 1.602 1.009 2.702 0 3.867-2.295 4.718-4.483 4.968.353.311.666.925.666 1.864 0 1.346-.011 2.432-.011 2.762 0 .269.177.582.675.484 3.898-1.334 6.708-5.104 6.708-9.551 0-5.56-4.396-10.067-9.819-10.067-5.421 0-9.817 4.507-9.817 10.067z" fill="#434D5F" sketch:type="MSShapeGroup"/></g></svg>