<?xml version="1.0" encoding="UTF-8" standalone="no"?>
<svg viewBox="0 0 40 40" class="icon" version="1.1" xmlns="http://www.w3.org/2000/svg" xmlns:xlink="http://www.w3.org/1999/xlink" xmlns:sketch="http://www.bohemiancoding.com/sketch/ns">
  <defs></defs>
  <g id="icon-sns" fill="none" fill-rule="evenodd" sketch:type="MSArtboardGroup">
    <g id="icon-facebook" sketch:type="MSLayerGroup" x="20" y="20" >
                <circle id="Oval" stroke="#8490A7" stroke-width="2" opacity="0.4" fill="transparent" sketch:type="MSShapeGroup" cx="18" cy="18" r="18"></circle>
                <path d="M19.0756683,27.8181818 L15.085016,27.8181818 L15.085016,18.4079032 L13.0909091,18.4079032 L13.0909091,15.1654369 L15.085016,15.1654369 L15.085016,13.2187694 C15.085016,10.5737245 16.210397,9 19.4097467,9 L22.0726201,9 L22.0726201,12.243654 L20.4083243,12.243654 C19.1628457,12.243654 19.0805453,12.6967679 19.0805453,13.5424221 L19.0750587,15.1654369 L22.0909091,15.1654369 L21.7379321,18.4079032 L19.0750587,18.4079032 L19.0750587,27.8181818 L19.0756683,27.8181818 Z" id="Shape" fill="#434D5F" sketch:type="MSShapeGroup"></path>
            </g>

    <g id="icon-twitter" class="sprite" sketch:type="MSLayerGroup">
                <circle id="Oval" stroke="#8490A7" stroke-width="2" opacity="0.4" fill="transparent"  sketch:type="MSShapeGroup" cx="18" cy="18" r="18"></circle>
                <path d="M24.9759401,12.9646895 C25.7040772,12.5051935 26.2627863,11.7765945 26.5249964,10.9086576 C25.8432503,11.3351805 25.0899006,11.6436385 24.2861259,11.8106312 C23.6447198,11.0873505 22.7279931,10.6363636 21.7134419,10.6363636 C19.7670365,10.6363636 18.1897421,12.300973 18.1897421,14.353814 C18.1897421,14.6452536 18.2189886,14.9292477 18.2794986,15.200478 C15.350814,15.0451854 12.7539259,13.5667144 11.0142631,11.3160348 C10.7107045,11.8670046 10.5372425,12.5051935 10.5372425,13.1859283 C10.5372425,14.4750699 11.1594871,15.6131735 12.1054603,16.2811445 C11.5275897,16.2619989 10.9840081,16.0928788 10.507996,15.8163303 L10.507996,15.8620672 C10.507996,17.6638872 11.7222302,19.1668221 13.3368391,19.5071895 C13.04034,19.5944086 12.7297219,19.6380182 12.4070019,19.6380182 C12.1800893,19.6380182 11.9582193,19.6156816 11.7444172,19.572072 C12.1921913,21.0484157 13.4941651,22.1248276 15.0371704,22.1535462 C13.8299957,23.1512481 12.3101859,23.7447638 10.659271,23.7447638 C10.3748739,23.7447638 10.0935024,23.7288091 9.81818182,23.6937087 C11.3783317,24.7477841 13.2309465,25.3636364 15.221726,25.3636364 C21.7063824,25.3636364 25.2502521,19.6986461 25.2502521,14.7856552 C25.2502521,14.6239807 25.2482351,14.4633698 25.2411756,14.3048862 C25.9299813,13.7805077 26.5290304,13.1253004 27,12.379683 C26.3676704,12.6753772 25.6879412,12.8753431 24.9759401,12.9646895 Z" id="Shape" fill="#434D5F" sketch:type="MSShapeGroup"></path>
            </g>

    <g id="icon-github" class="sprite" sketch:type="MSLayerGroup">
                <circle id="Oval" stroke="#8490A7" stroke-width="2" opacity="0.4" fill="transparent"  sketch:type="MSShapeGroup" cx="18" cy="18" r="18"></circle>
                <path d="M8.18181818,18.2490822 C8.18181818,22.6962297 10.9947624,26.4697542 14.8962382,27.800932 C15.3874638,27.8936324 15.5664748,27.5827771 15.5664748,27.3157999 C15.5664748,27.0766329 15.5580365,26.4437981 15.5532147,25.6039324 C12.8222419,26.2120471 12.2460313,24.2542145 12.2460313,24.2542145 C11.7994079,23.0911334 11.1556915,22.7815141 11.1556915,22.7815141 C10.2642528,22.1567133 11.2231973,22.1696914 11.2231973,22.1696914 C12.208662,22.2407617 12.7270104,23.2073179 12.7270104,23.2073179 C13.6033809,24.7455267 15.0252226,24.3011827 15.5845567,24.0434756 C15.6737608,23.3927187 15.9275105,22.9496108 16.2077802,22.6974657 C14.0277033,22.4434666 11.7355184,21.5801168 11.7355184,17.7225439 C11.7355184,16.6231171 12.1182524,15.7245412 12.7462978,15.0206361 C12.6456418,14.766019 12.3087153,13.7426065 12.8427347,12.3570444 C12.8427347,12.3570444 13.6672703,12.0857413 15.5423656,13.388491 C16.3259155,13.165392 17.1655193,13.0535335 18.0003014,13.0498255 C18.8344807,13.0535335 19.6740845,13.165392 20.4588399,13.388491 C22.3327297,12.0857413 23.1560598,12.3570444 23.1560598,12.3570444 C23.6912847,13.7426065 23.3543582,14.766019 23.2537022,15.0206361 C23.882953,15.7245412 24.2626734,16.6231171 24.2626734,17.7225439 C24.2626734,21.5893868 21.9674749,22.4403766 19.7801651,22.6900497 C20.1327626,23.000905 20.4461826,23.6151997 20.4461826,24.5539458 C20.4461826,25.8999557 20.4347307,26.9857865 20.4347307,27.3157999 C20.4347307,27.5852491 20.6113308,27.8979584 21.1097891,27.799696 C25.0076485,26.4660462 27.8181818,22.6956117 27.8181818,18.2490822 C27.8181818,12.6889119 23.4218641,8.18181818 17.9990959,8.18181818 C12.5781359,8.18181818 8.18181818,12.6889119 8.18181818,18.2490822 Z" id="Shape" fill="#434D5F" sketch:type="MSShapeGroup"></path>
            </g>
    <g id="icon-linkedin" class="sprite" sketch:type="MSLayerGroup">
                <circle id="Oval" stroke="#8490A7" stroke-width="2" opacity="0.4" fill="transparent"  sketch:type="MSShapeGroup" cx="18" cy="18" r="18"></circle>
                <path d="M10.2309288,15.0652743 L13.420337,15.0652743 L13.420337,26.1807704 L10.2309288,26.1807704 L10.2309288,15.0652743 Z M11.7443342,13.6749205 L11.7212435,13.6749205 C10.5667066,13.6749205 9.81818182,12.8252017 9.81818182,11.7491705 C9.81818182,10.6511368 10.5888352,9.81818182 11.7664628,9.81818182 C12.9431284,9.81818182 13.6666382,10.6490413 13.6897289,11.7460273 C13.6897289,12.8220585 12.9431284,13.6749205 11.7443342,13.6749205 L11.7443342,13.6749205 Z M26.1818182,26.1818182 L22.5652313,26.1818182 L22.5652313,20.4286662 C22.5652313,18.9230608 21.9995083,17.8962735 20.7554947,17.8962735 C19.8039639,17.8962735 19.2748012,18.5888311 19.0285,19.2583383 C18.936137,19.4972235 18.9505687,19.8314532 18.9505687,20.1667307 L18.9505687,26.1818182 L15.3676559,26.1818182 C15.3676559,26.1818182 15.4138373,15.9914784 15.3676559,15.0652743 L18.9505687,15.0652743 L18.9505687,16.809765 C19.1622338,16.0470087 20.3071496,14.9584046 22.1342042,14.9584046 C24.400945,14.9584046 26.1818182,16.5583068 26.1818182,20.0001397 L26.1818182,26.1818182 L26.1818182,26.1818182 Z" id="Shape" fill="#434D5F" sketch:type="MSShapeGroup"></path>
            </g>
    </g>
</svg>