<?xml version="1.0" encoding="UTF-8" standalone="no"?>
<svg width="346px" height="281px" viewBox="0 0 346 281" version="1.1" xmlns="http://www.w3.org/2000/svg" xmlns:xlink="http://www.w3.org/1999/xlink" xmlns:sketch="http://www.bohemiancoding.com/sketch/ns">
    <!-- Generator: Sketch 3.3.3 (12081) - http://www.bohemiancoding.com/sketch -->
    <title>anduin circuit</title>
    <desc>Created with Sketch.</desc>
    <defs></defs>
    <g id="Landing-Page" stroke="none" stroke-width="1" fill="none" fill-rule="evenodd" sketch:type="MSPage">
        <g id="anduin-landingpage-copy-4" sketch:type="MSArtboardGroup" transform="translate(-845.000000, -801.000000)" stroke="#1AB3EC" stroke-width="0.9">
            <g id="anduin-circuit" sketch:type="MSLayerGroup" transform="translate(846.000000, 802.000000)">
                <path d="M131.47644,67.5 L171.099476,4.5" id="Shape" sketch:type="MSShapeGroup"></path>
                <path d="M73.8429319,160.2 L123.371728,81" id="Shape" sketch:type="MSShapeGroup"></path>
                <path d="M2.70157068,274.5 L55.2248324,189.9 L74.7434555,201.526006" id="Shape" sketch:type="MSShapeGroup"></path>
                <path d="M67.539267,170.797614 L85.5723081,181.8 L183.255665,23.3991211 L195.637864,42.7491211" id="Shape" sketch:type="MSShapeGroup"></path>
                <path d="M27.9162304,276.3 L73.8429319,202.5" id="Shape" sketch:type="MSShapeGroup"></path>
                <path d="M50.4293194,275.4 L181.005236,65.7" id="Shape" sketch:type="MSShapeGroup"></path>
                <path d="M72.0418848,275.4 L137.780105,167.4" id="Shape" sketch:type="MSShapeGroup"></path>
                <path d="M111.664921,234.9 L137.780105,275.4" id="Shape" sketch:type="MSShapeGroup"></path>
                <path d="M148.441406,182.219727 L181.905759,233.1" id="Shape" sketch:type="MSShapeGroup"></path>
                <path d="M193.468639,217.8 L225.13089,166.423978 L181.905759,102.6" id="Shape" sketch:type="MSShapeGroup"></path>
                <path d="M204.418848,57.6 L342.198953,274.5" id="Shape" sketch:type="MSShapeGroup"></path>
                <path d="M126.073298,220.5 L161.907788,275.4 L208.020942,275.13632" id="Shape" sketch:type="MSShapeGroup"></path>
                <path d="M137.780105,200.7 L173.736724,255.6 L219.727749,255.33632" id="Shape" sketch:type="MSShapeGroup"></path>
                <path d="M179.557618,203.255861 L202.617801,165.892928 L170.452049,116.1 L147.685864,152.939242" id="Shape" sketch:type="MSShapeGroup"></path>
                <path d="M205.319372,237.690393 L237.512376,184.5 L293.570681,275.4" id="Shape" sketch:type="MSShapeGroup"></path>
                <path d="M227.832461,239.429211 L239.138831,222.3 L271.057592,275.4" id="Shape" sketch:type="MSShapeGroup"></path>
                <path d="M193.612565,81.9 L317.884817,275.4" id="Shape" sketch:type="MSShapeGroup"></path>
                <ellipse id="Oval" fill="#18202F" sketch:type="MSShapeGroup" cx="172.450262" cy="2.25" rx="2.2513089" ry="2.25"></ellipse>
                <ellipse id="Oval" fill="#18202F" sketch:type="MSShapeGroup" cx="195.863874" cy="42.75" rx="2.2513089" ry="2.25"></ellipse>
                <ellipse id="Oval" fill="#18202F" sketch:type="MSShapeGroup" cx="203.068063" cy="56.25" rx="2.2513089" ry="2.25"></ellipse>
                <ellipse id="Oval" fill="#18202F" sketch:type="MSShapeGroup" cx="182.356021" cy="63.45" rx="2.2513089" ry="2.25"></ellipse>
                <ellipse id="Oval" fill="#18202F" sketch:type="MSShapeGroup" cx="194.062827" cy="80.55" rx="2.2513089" ry="2.25"></ellipse>
                <ellipse id="Oval" fill="#18202F" sketch:type="MSShapeGroup" cx="180.554974" cy="101.25" rx="2.2513089" ry="2.25"></ellipse>
                <ellipse id="Oval" fill="#18202F" sketch:type="MSShapeGroup" cx="148.036649" cy="152.45" rx="2.2513089" ry="2.25"></ellipse>
                <ellipse id="Oval" fill="#18202F" sketch:type="MSShapeGroup" cx="139.031414" cy="166.05" rx="2.2513089" ry="2.25"></ellipse>
                <ellipse id="Oval" fill="#18202F" sketch:type="MSShapeGroup" cx="148.136126" cy="182.25" rx="2.2513089" ry="2.25"></ellipse>
                <ellipse id="Oval" fill="#18202F" sketch:type="MSShapeGroup" cx="179.65445" cy="202.95" rx="2.2513089" ry="2.25"></ellipse>
                <ellipse id="Oval" fill="#18202F" sketch:type="MSShapeGroup" cx="194.062827" cy="218.25" rx="2.2513089" ry="2.25"></ellipse>
                <ellipse id="Oval" fill="#18202F" sketch:type="MSShapeGroup" cx="205.769634" cy="236.25" rx="2.2513089" ry="2.25"></ellipse>
                <ellipse id="Oval" fill="#18202F" sketch:type="MSShapeGroup" cx="182.356021" cy="232.65" rx="2.2513089" ry="2.25"></ellipse>
                <ellipse id="Oval" fill="#18202F" sketch:type="MSShapeGroup" cx="137.329843" cy="199.35" rx="2.2513089" ry="2.25"></ellipse>
                <ellipse id="Oval" fill="#18202F" sketch:type="MSShapeGroup" cx="86" cy="181.35" rx="2.2513089" ry="2.25"></ellipse>
                <ellipse id="Oval" fill="#18202F" sketch:type="MSShapeGroup" cx="74.2931937" cy="202.95" rx="2.2513089" ry="2.25"></ellipse>
                <ellipse id="Oval" fill="#18202F" sketch:type="MSShapeGroup" cx="125.623037" cy="220.95" rx="2.2513089" ry="2.25"></ellipse>
                <ellipse id="Oval" fill="#18202F" sketch:type="MSShapeGroup" cx="112.91623" cy="236.25" rx="2.2513089" ry="2.25"></ellipse>
                <ellipse id="Oval" fill="#18202F" sketch:type="MSShapeGroup" cx="137.329843" cy="275.85" rx="2.2513089" ry="2.25"></ellipse>
                <ellipse id="Oval" fill="#18202F" sketch:type="MSShapeGroup" cx="228.282723" cy="238.95" rx="2.2513089" ry="2.25"></ellipse>
                <ellipse id="Oval" fill="#18202F" sketch:type="MSShapeGroup" cx="218.376963" cy="255.15" rx="2.2513089" ry="2.25"></ellipse>
                <ellipse id="Oval" fill="#18202F" sketch:type="MSShapeGroup" cx="207.570681" cy="275.05" rx="2.2513089" ry="2.25"></ellipse>
                <ellipse id="Oval" fill="#18202F" sketch:type="MSShapeGroup" cx="71.591623" cy="275.85" rx="2.2513089" ry="2.25"></ellipse>
                <ellipse id="Oval" fill="#18202F" sketch:type="MSShapeGroup" cx="50.8795812" cy="275.85" rx="2.2513089" ry="2.25"></ellipse>
                <ellipse id="Oval" fill="#18202F" sketch:type="MSShapeGroup" cx="28.2670157" cy="276.75" rx="2.2513089" ry="2.25"></ellipse>
                <ellipse id="Oval" fill="#18202F" sketch:type="MSShapeGroup" cx="2.2513089" cy="276.75" rx="2.2513089" ry="2.25"></ellipse>
                <ellipse id="Oval" fill="#18202F" sketch:type="MSShapeGroup" cx="55.382199" cy="191.25" rx="2.2513089" ry="2.25"></ellipse>
                <ellipse id="Oval" fill="#18202F" sketch:type="MSShapeGroup" cx="67.0890052" cy="170.55" rx="2.2513089" ry="2.25"></ellipse>
                <ellipse id="Oval" fill="#18202F" sketch:type="MSShapeGroup" cx="74.2931937" cy="158.85" rx="2.2513089" ry="2.25"></ellipse>
                <ellipse id="Oval" fill="#18202F" sketch:type="MSShapeGroup" cx="131.026178" cy="67.95" rx="2.2513089" ry="2.25"></ellipse>
                <ellipse id="Oval" fill="#18202F" sketch:type="MSShapeGroup" cx="123.82199" cy="80.55" rx="2.2513089" ry="2.25"></ellipse>
                <ellipse id="Oval" fill="#18202F" sketch:type="MSShapeGroup" cx="271.507853" cy="275.85" rx="2.2513089" ry="2.25"></ellipse>
                <ellipse id="Oval" fill="#18202F" sketch:type="MSShapeGroup" cx="341.748691" cy="275.85" rx="2.2513089" ry="2.25"></ellipse>
                <ellipse id="Oval" fill="#18202F" sketch:type="MSShapeGroup" cx="317.434555" cy="275.85" rx="2.2513089" ry="2.25"></ellipse>
                <ellipse id="Oval" fill="#18202F" sketch:type="MSShapeGroup" cx="294.020942" cy="275.85" rx="2.2513089" ry="2.25"></ellipse>
            </g>
        </g>
    </g>
</svg>