<?xml version="1.0" encoding="UTF-8" standalone="no"?>
<svg width="366px" height="51px" viewBox="0 0 366 51" version="1.1" xmlns="http://www.w3.org/2000/svg" xmlns:xlink="http://www.w3.org/1999/xlink" xmlns:sketch="http://www.bohemiancoding.com/sketch/ns">
    <!-- Generator: Sketch 3.3.3 (12081) - http://www.bohemiancoding.com/sketch -->
    <title>logo-anduin-color-whitetext</title>
    <desc>Created with Sketch.</desc>
    <defs></defs>
    <g id="Page-1" stroke="none" stroke-width="1" fill="none" fill-rule="evenodd" sketch:type="MSPage">
        <g id="logo-w/text-converted-to-curves" sketch:type="MSArtboardGroup" transform="translate(-19.000000, -129.000000)">
            <g id="logo-anduin-color-whitetext" sketch:type="MSLayerGroup" transform="translate(19.000000, 129.000000)">
                <path d="M30,0.5 L0,50.5 L12,50.5 L18,40.5 L24,50.5 L36,50.5 L42,40.5 L48,50.5 L60,50.5 L30,0.5 M30,20.2183099 L24,30.0774648 L30,39.9366197 L36,30.0774648 L30,20.2183099" id="logo" fill="#1AB3EC" sketch:type="MSShapeGroup"></path>
                <path d="M86.048,29.436 L95.872,29.436 L90.976,17.532 L86.048,29.436 Z M82.688,37.5 L80,37.5 L89.856,14.844 L92.096,14.844 L101.952,37.5 L99.264,37.5 L96.768,31.548 L85.184,31.548 L82.688,37.5 Z M106.272,22.524 C106.314667,22.9293354 106.341333,23.3293314 106.352,23.724 C106.362667,24.1186686 106.368,24.5186646 106.368,24.924 L106.432,24.924 C106.666668,24.5186646 106.965332,24.145335 107.328,23.804 C107.690668,23.462665 108.095998,23.1693346 108.544,22.924 C108.992002,22.6786654 109.466664,22.4866674 109.968,22.348 C110.469336,22.2093326 110.965331,22.14 111.456,22.14 C113.37601,22.14 114.794662,22.6466616 115.712,23.66 C116.629338,24.6733384 117.088,26.1186573 117.088,27.996 L117.088,37.5 L114.976,37.5 L114.976,29.212 C114.976,27.5479917 114.688003,26.2733378 114.112,25.388 C113.535997,24.5026622 112.469341,24.06 110.912,24.06 C110.805333,24.06 110.506669,24.1026662 110.016,24.188 C109.525331,24.2733338 109.008003,24.5079981 108.464,24.892 C107.919997,25.2760019 107.434669,25.8519962 107.008,26.62 C106.581331,27.3880038 106.368,28.4546598 106.368,29.82 L106.368,37.5 L104.256,37.5 L104.256,25.82 C104.256,25.4146646 104.24,24.9026698 104.208,24.284 C104.176,23.6653302 104.138667,23.0786694 104.096,22.524 L106.272,22.524 Z M123.328,30.012 C123.328,30.8440042 123.461332,31.622663 123.728,32.348 C123.994668,33.073337 124.373331,33.702664 124.864,34.236 C125.354669,34.769336 125.946663,35.1906651 126.64,35.5 C127.333337,35.8093349 128.117329,35.964 128.992,35.964 C129.845338,35.964 130.639996,35.8093349 131.376,35.5 C132.112004,35.1906651 132.746664,34.769336 133.28,34.236 C133.813336,33.702664 134.229332,33.073337 134.528,32.348 C134.826668,31.622663 134.976,30.8440042 134.976,30.012 C134.976,29.1799958 134.826668,28.401337 134.528,27.676 C134.229332,26.950663 133.813336,26.321336 133.28,25.788 C132.746664,25.254664 132.112004,24.8333349 131.376,24.524 C130.639996,24.2146651 129.845338,24.06 128.992,24.06 C128.117329,24.06 127.333337,24.2146651 126.64,24.524 C125.946663,24.8333349 125.354669,25.254664 124.864,25.788 C124.373331,26.321336 123.994668,26.950663 123.728,27.676 C123.461332,28.401337 123.328,29.1799958 123.328,30.012 L123.328,30.012 Z M136.992,37.5 L134.88,37.5 L134.88,35.004 L134.816,35.004 C134.474665,35.5160026 134.069336,35.9533315 133.6,36.316 C133.130664,36.6786685 132.640003,36.9773322 132.128,37.212 C131.615997,37.4466678 131.088003,37.6173328 130.544,37.724 C129.999997,37.8306672 129.482669,37.884 128.992,37.884 C127.818661,37.884 126.746672,37.6866686 125.776,37.292 C124.805328,36.8973314 123.968004,36.3480035 123.264,35.644 C122.559996,34.9399965 122.010669,34.1080048 121.616,33.148 C121.221331,32.1879952 121.024,31.1426723 121.024,30.012 C121.024,28.8813277 121.221331,27.8360048 121.616,26.876 C122.010669,25.9159952 122.559996,25.0840035 123.264,24.38 C123.968004,23.6759965 124.805328,23.1266686 125.776,22.732 C126.746672,22.3373314 127.818661,22.14 128.992,22.14 C129.482669,22.14 129.999997,22.1933328 130.544,22.3 C131.088003,22.4066672 131.615997,22.5773322 132.128,22.812 C132.640003,23.0466678 133.130664,23.3453315 133.6,23.708 C134.069336,24.0706685 134.474665,24.5079974 134.816,25.02 L134.88,25.02 L134.88,13.308 L136.992,13.308 L136.992,37.5 Z M152.416,37.5 C152.373333,37.0946646 152.346667,36.6946686 152.336,36.3 C152.325333,35.9053314 152.32,35.5053354 152.32,35.1 L152.256,35.1 C152.021332,35.5053354 151.722668,35.878665 151.36,36.22 C150.997332,36.561335 150.592002,36.8546654 150.144,37.1 C149.695998,37.3453346 149.221336,37.5373326 148.72,37.676 C148.218664,37.8146674 147.722669,37.884 147.232,37.884 C145.31199,37.884 143.893338,37.3773384 142.976,36.364 C142.058662,35.3506616 141.6,33.9053427 141.6,32.028 L141.6,22.524 L143.712,22.524 L143.712,30.812 C143.712,31.6440042 143.775999,32.3799968 143.904,33.02 C144.032001,33.6600032 144.250665,34.1986645 144.56,34.636 C144.869335,35.0733355 145.285331,35.4039989 145.808,35.628 C146.330669,35.8520011 146.986663,35.964 147.776,35.964 C147.882667,35.964 148.181331,35.9213338 148.672,35.836 C149.162669,35.7506662 149.679997,35.5160019 150.224,35.132 C150.768003,34.7479981 151.253331,34.1720038 151.68,33.404 C152.106669,32.6359962 152.32,31.5693402 152.32,30.204 L152.32,22.524 L154.432,22.524 L154.432,34.204 C154.432,34.6093354 154.448,35.1213302 154.48,35.74 C154.512,36.3586698 154.549333,36.9453306 154.592,37.5 L152.416,37.5 Z M162.464,16.764 C162.464,17.2120022 162.304002,17.5799986 161.984,17.868 C161.663998,18.1560014 161.312002,18.3 160.928,18.3 C160.543998,18.3 160.192002,18.1560014 159.872,17.868 C159.551998,17.5799986 159.392,17.2120022 159.392,16.764 C159.392,16.3159978 159.551998,15.9480014 159.872,15.66 C160.192002,15.3719986 160.543998,15.228 160.928,15.228 C161.312002,15.228 161.663998,15.3719986 161.984,15.66 C162.304002,15.9480014 162.464,16.3159978 162.464,16.764 L162.464,16.764 Z M161.984,37.5 L159.872,37.5 L159.872,22.524 L161.984,22.524 L161.984,37.5 Z M169.088,22.524 C169.130667,22.9293354 169.157333,23.3293314 169.168,23.724 C169.178667,24.1186686 169.184,24.5186646 169.184,24.924 L169.248,24.924 C169.482668,24.5186646 169.781332,24.145335 170.144,23.804 C170.506668,23.462665 170.911998,23.1693346 171.36,22.924 C171.808002,22.6786654 172.282664,22.4866674 172.784,22.348 C173.285336,22.2093326 173.781331,22.14 174.272,22.14 C176.19201,22.14 177.610662,22.6466616 178.528,23.66 C179.445338,24.6733384 179.904,26.1186573 179.904,27.996 L179.904,37.5 L177.792,37.5 L177.792,29.212 C177.792,27.5479917 177.504003,26.2733378 176.928,25.388 C176.351997,24.5026622 175.285341,24.06 173.728,24.06 C173.621333,24.06 173.322669,24.1026662 172.832,24.188 C172.341331,24.2733338 171.824003,24.5079981 171.28,24.892 C170.735997,25.2760019 170.250669,25.8519962 169.824,26.62 C169.397331,27.3880038 169.184,28.4546598 169.184,29.82 L169.184,37.5 L167.072,37.5 L167.072,25.82 C167.072,25.4146646 167.056,24.9026698 167.024,24.284 C166.992,23.6653302 166.954667,23.0786694 166.912,22.524 L169.088,22.524 Z M201.792,37.5 L199.488,37.5 L199.488,16.956 L191.904,16.956 L191.904,14.844 L209.376,14.844 L209.376,16.956 L201.792,16.956 L201.792,37.5 Z M209.408,27.196 C209.408,26.5346634 209.392,25.8626701 209.36,25.18 C209.328,24.4973299 209.301333,23.6120054 209.28,22.524 L211.36,22.524 L211.36,25.308 L211.424,25.308 C211.573334,24.9026646 211.786665,24.5133352 212.064,24.14 C212.341335,23.7666648 212.677331,23.4306682 213.072,23.132 C213.466669,22.8333318 213.925331,22.5933342 214.448,22.412 C214.970669,22.2306658 215.562663,22.14 216.224,22.14 C216.821336,22.14 217.343998,22.2039994 217.792,22.332 L217.376,24.412 C217.098665,24.3053328 216.693336,24.252 216.16,24.252 C215.349329,24.252 214.656003,24.4066651 214.08,24.716 C213.503997,25.0253349 213.024002,25.4199976 212.64,25.9 C212.255998,26.3800024 211.973334,26.8973306 211.792,27.452 C211.610666,28.0066694 211.52,28.5399974 211.52,29.052 L211.52,37.5 L209.408,37.5 L209.408,27.196 Z M228.32,30.044 C227.786664,30.044 227.120004,30.0706664 226.32,30.124 C225.519996,30.1773336 224.752004,30.3053323 224.016,30.508 C223.279996,30.7106677 222.650669,31.0253312 222.128,31.452 C221.605331,31.8786688 221.344,32.4653296 221.344,33.212 C221.344,33.7026691 221.445332,34.1239982 221.648,34.476 C221.850668,34.8280018 222.122665,35.1159989 222.464,35.34 C222.805335,35.5640011 223.183998,35.7239995 223.6,35.82 C224.016002,35.9160005 224.437331,35.964 224.864,35.964 C225.632004,35.964 226.298664,35.8360013 226.864,35.58 C227.429336,35.3239987 227.903998,34.9773355 228.288,34.54 C228.672002,34.1026645 228.954666,33.5906696 229.136,33.004 C229.317334,32.4173304 229.408,31.7933366 229.408,31.132 L229.408,30.044 L228.32,30.044 Z M229.408,28.316 L229.408,27.932 C229.408,25.3506538 228.128013,24.06 225.568,24.06 C223.818658,24.06 222.29334,24.6466608 220.992,25.82 L219.712,24.316 C221.120007,22.8653261 223.231986,22.14 226.048,22.14 C226.773337,22.14 227.471997,22.2466656 228.144,22.46 C228.816003,22.6733344 229.397331,22.9986645 229.888,23.436 C230.378669,23.8733355 230.773332,24.4226634 231.072,25.084 C231.370668,25.7453366 231.52,26.5346621 231.52,27.452 L231.52,34.14 C231.52,34.7160029 231.546666,35.3186635 231.6,35.948 C231.653334,36.5773365 231.712,37.0946646 231.776,37.5 L229.728,37.5 C229.664,37.1373315 229.616,36.7426688 229.584,36.316 C229.552,35.8893312 229.536,35.4733354 229.536,35.068 L229.472,35.068 C228.85333,36.0706717 228.122671,36.7906645 227.28,37.228 C226.437329,37.6653355 225.408006,37.884 224.192,37.884 C223.530663,37.884 222.89067,37.7933342 222.272,37.612 C221.65333,37.4306658 221.104002,37.1533352 220.624,36.78 C220.143998,36.4066648 219.760001,35.9480027 219.472,35.404 C219.183999,34.8599973 219.04,34.225337 219.04,33.5 C219.04,32.2839939 219.354664,31.3293368 219.984,30.636 C220.613336,29.9426632 221.402662,29.425335 222.352,29.084 C223.301338,28.742665 224.314661,28.5293338 225.392,28.444 C226.469339,28.3586662 227.455996,28.316 228.352,28.316 L229.408,28.316 Z M238.432,22.524 C238.474667,22.9293354 238.501333,23.3293314 238.512,23.724 C238.522667,24.1186686 238.528,24.5186646 238.528,24.924 L238.592,24.924 C238.826668,24.5186646 239.125332,24.145335 239.488,23.804 C239.850668,23.462665 240.255998,23.1693346 240.704,22.924 C241.152002,22.6786654 241.626664,22.4866674 242.128,22.348 C242.629336,22.2093326 243.125331,22.14 243.616,22.14 C245.53601,22.14 246.954662,22.6466616 247.872,23.66 C248.789338,24.6733384 249.248,26.1186573 249.248,27.996 L249.248,37.5 L247.136,37.5 L247.136,29.212 C247.136,27.5479917 246.848003,26.2733378 246.272,25.388 C245.695997,24.5026622 244.629341,24.06 243.072,24.06 C242.965333,24.06 242.666669,24.1026662 242.176,24.188 C241.685331,24.2733338 241.168003,24.5079981 240.624,24.892 C240.079997,25.2760019 239.594669,25.8519962 239.168,26.62 C238.741331,27.3880038 238.528,28.4546598 238.528,29.82 L238.528,37.5 L236.416,37.5 L236.416,25.82 C236.416,25.4146646 236.4,24.9026698 236.368,24.284 C236.336,23.6653302 236.298667,23.0786694 236.256,22.524 L238.432,22.524 Z M262.144,26.076 C261.823998,25.4573302 261.397336,24.9666685 260.864,24.604 C260.330664,24.2413315 259.680004,24.06 258.912,24.06 C258.549332,24.06 258.181335,24.1026662 257.808,24.188 C257.434665,24.2733338 257.098668,24.4066658 256.8,24.588 C256.501332,24.7693342 256.261334,24.9986653 256.08,25.276 C255.898666,25.5533347 255.808,25.8946646 255.808,26.3 C255.808,27.0040035 256.053331,27.5159984 256.544,27.836 C257.034669,28.1560016 257.770662,28.4333322 258.752,28.668 L260.896,29.18 C261.941339,29.4146678 262.810663,29.8893298 263.504,30.604 C264.197337,31.3186702 264.544,32.209328 264.544,33.276 C264.544,34.0866707 264.378668,34.7853304 264.048,35.372 C263.717332,35.9586696 263.280003,36.4386648 262.736,36.812 C262.191997,37.1853352 261.568004,37.4573325 260.864,37.628 C260.159996,37.7986675 259.445337,37.884 258.72,37.884 C257.567994,37.884 256.496005,37.6653355 255.504,37.228 C254.511995,36.7906645 253.664004,36.038672 252.96,34.972 L254.784,33.724 C255.210669,34.4066701 255.74933,34.9506646 256.4,35.356 C257.05067,35.7613354 257.823996,35.964 258.72,35.964 C259.146669,35.964 259.573331,35.9160005 260,35.82 C260.426669,35.7239995 260.805332,35.5746677 261.136,35.372 C261.466668,35.1693323 261.733332,34.9080016 261.936,34.588 C262.138668,34.2679984 262.24,33.8946688 262.24,33.468 C262.24,32.7213296 261.962669,32.1826683 261.408,31.852 C260.853331,31.5213317 260.181337,31.260001 259.392,31.068 L257.344,30.588 C257.087999,30.5239997 256.741336,30.4173341 256.304,30.268 C255.866664,30.1186659 255.440002,29.8946682 255.024,29.596 C254.607998,29.2973318 254.250668,28.9080024 253.952,28.428 C253.653332,27.9479976 253.504,27.3560035 253.504,26.652 C253.504,25.8839962 253.658665,25.2120029 253.968,24.636 C254.277335,24.0599971 254.693331,23.5906685 255.216,23.228 C255.738669,22.8653315 256.330663,22.5933342 256.992,22.412 C257.653337,22.2306658 258.335996,22.14 259.04,22.14 C260.085339,22.14 261.055996,22.3426646 261.952,22.748 C262.848004,23.1533354 263.541331,23.8466618 264.032,24.828 L262.144,26.076 Z M276.352,30.044 C275.818664,30.044 275.152004,30.0706664 274.352,30.124 C273.551996,30.1773336 272.784004,30.3053323 272.048,30.508 C271.311996,30.7106677 270.682669,31.0253312 270.16,31.452 C269.637331,31.8786688 269.376,32.4653296 269.376,33.212 C269.376,33.7026691 269.477332,34.1239982 269.68,34.476 C269.882668,34.8280018 270.154665,35.1159989 270.496,35.34 C270.837335,35.5640011 271.215998,35.7239995 271.632,35.82 C272.048002,35.9160005 272.469331,35.964 272.896,35.964 C273.664004,35.964 274.330664,35.8360013 274.896,35.58 C275.461336,35.3239987 275.935998,34.9773355 276.32,34.54 C276.704002,34.1026645 276.986666,33.5906696 277.168,33.004 C277.349334,32.4173304 277.44,31.7933366 277.44,31.132 L277.44,30.044 L276.352,30.044 Z M277.44,28.316 L277.44,27.932 C277.44,25.3506538 276.160013,24.06 273.6,24.06 C271.850658,24.06 270.32534,24.6466608 269.024,25.82 L267.744,24.316 C269.152007,22.8653261 271.263986,22.14 274.08,22.14 C274.805337,22.14 275.503997,22.2466656 276.176,22.46 C276.848003,22.6733344 277.429331,22.9986645 277.92,23.436 C278.410669,23.8733355 278.805332,24.4226634 279.104,25.084 C279.402668,25.7453366 279.552,26.5346621 279.552,27.452 L279.552,34.14 C279.552,34.7160029 279.578666,35.3186635 279.632,35.948 C279.685334,36.5773365 279.744,37.0946646 279.808,37.5 L277.76,37.5 C277.696,37.1373315 277.648,36.7426688 277.616,36.316 C277.584,35.8893312 277.568,35.4733354 277.568,35.068 L277.504,35.068 C276.88533,36.0706717 276.154671,36.7906645 275.312,37.228 C274.469329,37.6653355 273.440006,37.884 272.224,37.884 C271.562663,37.884 270.92267,37.7933342 270.304,37.612 C269.68533,37.4306658 269.136002,37.1533352 268.656,36.78 C268.175998,36.4066648 267.792001,35.9480027 267.504,35.404 C267.215999,34.8599973 267.072,34.225337 267.072,33.5 C267.072,32.2839939 267.386664,31.3293368 268.016,30.636 C268.645336,29.9426632 269.434662,29.425335 270.384,29.084 C271.333338,28.742665 272.346661,28.5293338 273.424,28.444 C274.501339,28.3586662 275.487996,28.316 276.384,28.316 L277.44,28.316 Z M295.36,26.044 C294.997332,25.4893306 294.49067,25.0200019 293.84,24.636 C293.18933,24.2519981 292.448004,24.06 291.616,24.06 C290.741329,24.0386666 289.957337,24.1773318 289.264,24.476 C288.570663,24.7746682 287.978669,25.190664 287.488,25.724 C286.997331,26.257336 286.624001,26.8919963 286.368,27.628 C286.111999,28.3640037 285.984,29.1586624 285.984,30.012 C285.984,30.8653376 286.111999,31.6599963 286.368,32.396 C286.624001,33.1320037 286.997331,33.766664 287.488,34.3 C287.978669,34.833336 288.570663,35.2493318 289.264,35.548 C289.957337,35.8466682 290.741329,35.9853334 291.616,35.964 C292.448004,35.964 293.18933,35.7720019 293.84,35.388 C294.49067,35.0039981 294.997332,34.5346694 295.36,33.98 L297.088,35.292 C296.34133,36.166671 295.498671,36.8119979 294.56,37.228 C293.621329,37.6440021 292.640005,37.8626666 291.616,37.884 C290.399994,37.9053334 289.301338,37.7186686 288.32,37.324 C287.338662,36.9293314 286.501337,36.3800035 285.808,35.676 C285.114663,34.9719965 284.586668,34.1346715 284.224,33.164 C283.861332,32.1933285 283.68,31.1426723 283.68,30.012 C283.68,28.8813277 283.861332,27.8306715 284.224,26.86 C284.586668,25.8893285 285.114663,25.0520035 285.808,24.348 C286.501337,23.6439965 287.338662,23.0946686 288.32,22.7 C289.301338,22.3053314 290.399994,22.1186666 291.616,22.14 C292.640005,22.1613334 293.621329,22.3799979 294.56,22.796 C295.498671,23.2120021 296.34133,23.857329 297.088,24.732 L295.36,26.044 Z M307.616,24.444 L303.296,24.444 L303.296,33.276 C303.296,33.8306694 303.349333,34.2839982 303.456,34.636 C303.562667,34.9880018 303.711999,35.259999 303.904,35.452 C304.096001,35.644001 304.325332,35.777333 304.592,35.852 C304.858668,35.926667 305.151998,35.964 305.472,35.964 C305.834668,35.964 306.207998,35.9106672 306.592,35.804 C306.976002,35.6973328 307.327998,35.5586675 307.648,35.388 L307.744,37.34 C306.954663,37.7026685 306.005339,37.884 304.896,37.884 C304.490665,37.884 304.069336,37.8306672 303.632,37.724 C303.194664,37.6173328 302.794668,37.4146682 302.432,37.116 C302.069332,36.8173318 301.770668,36.4120026 301.536,35.9 C301.301332,35.3879974 301.184,34.7160042 301.184,33.884 L301.184,24.444 L298.016,24.444 L298.016,22.524 L301.184,22.524 L301.184,18.3 L303.296,18.3 L303.296,22.524 L307.616,22.524 L307.616,24.444 Z M313.568,16.764 C313.568,17.2120022 313.408002,17.5799986 313.088,17.868 C312.767998,18.1560014 312.416002,18.3 312.032,18.3 C311.647998,18.3 311.296002,18.1560014 310.976,17.868 C310.655998,17.5799986 310.496,17.2120022 310.496,16.764 C310.496,16.3159978 310.655998,15.9480014 310.976,15.66 C311.296002,15.3719986 311.647998,15.228 312.032,15.228 C312.416002,15.228 312.767998,15.3719986 313.088,15.66 C313.408002,15.9480014 313.568,16.3159978 313.568,16.764 L313.568,16.764 Z M313.088,37.5 L310.976,37.5 L310.976,22.524 L313.088,22.524 L313.088,37.5 Z M331.008,30.012 C331.008,29.1799958 330.874668,28.401337 330.608,27.676 C330.341332,26.950663 329.962669,26.321336 329.472,25.788 C328.981331,25.254664 328.389337,24.8333349 327.696,24.524 C327.002663,24.2146651 326.218671,24.06 325.344,24.06 C324.469329,24.06 323.685337,24.2146651 322.992,24.524 C322.298663,24.8333349 321.712002,25.254664 321.232,25.788 C320.751998,26.321336 320.378668,26.950663 320.112,27.676 C319.845332,28.401337 319.712,29.1799958 319.712,30.012 C319.712,30.8440042 319.845332,31.622663 320.112,32.348 C320.378668,33.073337 320.751998,33.702664 321.232,34.236 C321.712002,34.769336 322.298663,35.1906651 322.992,35.5 C323.685337,35.8093349 324.469329,35.964 325.344,35.964 C326.218671,35.964 327.002663,35.8093349 327.696,35.5 C328.389337,35.1906651 328.981331,34.769336 329.472,34.236 C329.962669,33.702664 330.341332,33.073337 330.608,32.348 C330.874668,31.622663 331.008,30.8440042 331.008,30.012 L331.008,30.012 Z M333.312,30.012 C333.312,31.1426723 333.114669,32.1879952 332.72,33.148 C332.325331,34.1080048 331.776004,34.9399965 331.072,35.644 C330.367996,36.3480035 329.530672,36.8973314 328.56,37.292 C327.589328,37.6866686 326.517339,37.884 325.344,37.884 C324.191994,37.884 323.130672,37.6866686 322.16,37.292 C321.189328,36.8973314 320.352004,36.3480035 319.648,35.644 C318.943996,34.9399965 318.394669,34.1080048 318,33.148 C317.605331,32.1879952 317.408,31.1426723 317.408,30.012 C317.408,28.8813277 317.605331,27.8360048 318,26.876 C318.394669,25.9159952 318.943996,25.0840035 319.648,24.38 C320.352004,23.6759965 321.189328,23.1266686 322.16,22.732 C323.130672,22.3373314 324.191994,22.14 325.344,22.14 C326.517339,22.14 327.589328,22.3373314 328.56,22.732 C329.530672,23.1266686 330.367996,23.6759965 331.072,24.38 C331.776004,25.0840035 332.325331,25.9159952 332.72,26.876 C333.114669,27.8360048 333.312,28.8813277 333.312,30.012 L333.312,30.012 Z M339.168,22.524 C339.210667,22.9293354 339.237333,23.3293314 339.248,23.724 C339.258667,24.1186686 339.264,24.5186646 339.264,24.924 L339.328,24.924 C339.562668,24.5186646 339.861332,24.145335 340.224,23.804 C340.586668,23.462665 340.991998,23.1693346 341.44,22.924 C341.888002,22.6786654 342.362664,22.4866674 342.864,22.348 C343.365336,22.2093326 343.861331,22.14 344.352,22.14 C346.27201,22.14 347.690662,22.6466616 348.608,23.66 C349.525338,24.6733384 349.984,26.1186573 349.984,27.996 L349.984,37.5 L347.872,37.5 L347.872,29.212 C347.872,27.5479917 347.584003,26.2733378 347.008,25.388 C346.431997,24.5026622 345.365341,24.06 343.808,24.06 C343.701333,24.06 343.402669,24.1026662 342.912,24.188 C342.421331,24.2733338 341.904003,24.5079981 341.36,24.892 C340.815997,25.2760019 340.330669,25.8519962 339.904,26.62 C339.477331,27.3880038 339.264,28.4546598 339.264,29.82 L339.264,37.5 L337.152,37.5 L337.152,25.82 C337.152,25.4146646 337.136,24.9026698 337.104,24.284 C337.072,23.6653302 337.034667,23.0786694 336.992,22.524 L339.168,22.524 Z M362.88,26.076 C362.559998,25.4573302 362.133336,24.9666685 361.6,24.604 C361.066664,24.2413315 360.416004,24.06 359.648,24.06 C359.285332,24.06 358.917335,24.1026662 358.544,24.188 C358.170665,24.2733338 357.834668,24.4066658 357.536,24.588 C357.237332,24.7693342 356.997334,24.9986653 356.816,25.276 C356.634666,25.5533347 356.544,25.8946646 356.544,26.3 C356.544,27.0040035 356.789331,27.5159984 357.28,27.836 C357.770669,28.1560016 358.506662,28.4333322 359.488,28.668 L361.632,29.18 C362.677339,29.4146678 363.546663,29.8893298 364.24,30.604 C364.933337,31.3186702 365.28,32.209328 365.28,33.276 C365.28,34.0866707 365.114668,34.7853304 364.784,35.372 C364.453332,35.9586696 364.016003,36.4386648 363.472,36.812 C362.927997,37.1853352 362.304004,37.4573325 361.6,37.628 C360.895996,37.7986675 360.181337,37.884 359.456,37.884 C358.303994,37.884 357.232005,37.6653355 356.24,37.228 C355.247995,36.7906645 354.400004,36.038672 353.696,34.972 L355.52,33.724 C355.946669,34.4066701 356.48533,34.9506646 357.136,35.356 C357.78667,35.7613354 358.559996,35.964 359.456,35.964 C359.882669,35.964 360.309331,35.9160005 360.736,35.82 C361.162669,35.7239995 361.541332,35.5746677 361.872,35.372 C362.202668,35.1693323 362.469332,34.9080016 362.672,34.588 C362.874668,34.2679984 362.976,33.8946688 362.976,33.468 C362.976,32.7213296 362.698669,32.1826683 362.144,31.852 C361.589331,31.5213317 360.917337,31.260001 360.128,31.068 L358.08,30.588 C357.823999,30.5239997 357.477336,30.4173341 357.04,30.268 C356.602664,30.1186659 356.176002,29.8946682 355.76,29.596 C355.343998,29.2973318 354.986668,28.9080024 354.688,28.428 C354.389332,27.9479976 354.24,27.3560035 354.24,26.652 C354.24,25.8839962 354.394665,25.2120029 354.704,24.636 C355.013335,24.0599971 355.429331,23.5906685 355.952,23.228 C356.474669,22.8653315 357.066663,22.5933342 357.728,22.412 C358.389337,22.2306658 359.071996,22.14 359.776,22.14 C360.821339,22.14 361.791996,22.3426646 362.688,22.748 C363.584004,23.1533354 364.277331,23.8466618 364.768,24.828 L362.88,26.076 Z" id="Anduin-Transactions" fill="#FFFFFF" sketch:type="MSShapeGroup"></path>
            </g>
        </g>
    </g>
</svg>